<?xml version="1.0" encoding="UTF-8" standalone="no"?>
<!-- Uploaded to: SVG Repo, www.svgrepo.com, Generator: SVG Repo Mixer Tools -->

<svg
   fill="#000000"
   height="800"
   width="800"
   version="1.1"
   id="Layer_1"
   viewBox="0 0 800 800"
   xml:space="preserve"
   sodipodi:docname="android.svg"
   inkscape:version="1.3.2 (091e20e, 2023-11-25, custom)"
   xmlns:inkscape="http://www.inkscape.org/namespaces/inkscape"
   xmlns:sodipodi="http://sodipodi.sourceforge.net/DTD/sodipodi-0.dtd"
   xmlns="http://www.w3.org/2000/svg"
   xmlns:svg="http://www.w3.org/2000/svg"><defs
   id="defs3" /><sodipodi:namedview
   id="namedview3"
   pagecolor="#ffffff"
   bordercolor="#000000"
   borderopacity="0.25"
   inkscape:showpageshadow="2"
   inkscape:pageopacity="0.0"
   inkscape:pagecheckerboard="0"
   inkscape:deskcolor="#d1d1d1"
   inkscape:zoom="0.98375001"
   inkscape:cx="386.277"
   inkscape:cy="411.1817"
   inkscape:window-width="1920"
   inkscape:window-height="1001"
   inkscape:window-x="1911"
   inkscape:window-y="-9"
   inkscape:window-maximized="1"
   inkscape:current-layer="Layer_1" />

<circle
   style="fill:#95cf00;fill-opacity:1;stroke-width:25.4281;paint-order:markers stroke fill"
   id="path1"
   cx="400"
   cy="400"
   r="400" /><path
   d="m 461.29684,245.88481 c -8.4729,0 -15.332,-6.67553 -15.332,-14.92197 0,-8.2464 6.8591,-14.89176 15.332,-14.89176 8.47291,0 15.332,6.64536 15.332,14.89176 0,8.24644 -6.85907,14.92197 -15.332,14.92197 z m -122.5937,0 c -8.47291,0 -15.33198,-6.67553 -15.33198,-14.92197 0,-8.2464 6.85907,-14.89176 15.33198,-14.89176 8.47292,0 15.33202,6.64536 15.33202,14.89176 0,8.24644 -6.8591,14.92197 -15.33202,14.92197 z m 131.65638,-59.74842 5.71062,-8.39744 5.71078,-8.27661 12.72481,-18.60716 c 1.5829,-2.2957 0.93118,-5.37681 -1.42768,-6.88713 -2.32772,-1.54049 -5.52441,-0.90655 -7.04522,1.38948 l -19.42874,28.30353 -5.8349,8.51828 c -18.46661,-6.97778 -39.04369,-10.87436 -60.76917,-10.87436 -21.69447,0 -42.30258,3.89658 -60.76919,10.87436 l -5.80388,-8.51828 -5.74167,-8.36717 -13.65601,-19.93636 c -1.58288,-2.2957 -4.74854,-2.89979 -7.1073,-1.38948 -2.32781,1.51032 -2.97953,4.59143 -1.42769,6.88713 l 12.72483,18.60716 5.71077,8.27661 5.74168,8.39744 c -43.35779,19.66441 -72.68722,56.90911 -72.68722,99.53052 h 286.03121 c 0,-42.62141 -29.3293,-79.86611 -72.65603,-99.53052 z M 259.18798,305.54278 h -2.20365 v 218.75564 c 0,17.36867 14.49405,31.50536 32.37103,31.50536 h 23.33933 c -0.80703,2.62794 -1.24147,5.3767 -1.24147,8.27661 v 62.98056 c 0,16.46258 13.74914,29.81385 30.66391,29.81385 16.91487,0 30.66396,-13.35127 30.66396,-29.81385 v -62.98056 c 0,-2.89991 -0.46556,-5.64867 -1.24143,-8.27661 h 56.92067 c -0.77597,2.62794 -1.21041,5.3767 -1.21041,8.27661 v 62.98056 c 0,16.46258 13.71806,29.81385 30.63294,29.81385 16.94583,0 30.69494,-13.35127 30.69494,-29.81385 v -62.98056 c 0,-2.89991 -0.46558,-5.64867 -1.2725,-8.27661 h 23.37037 c 17.87697,0 32.33988,-14.13669 32.33988,-31.50536 V 305.54278 Z m -53.2895,0 c -16.94581,0 -30.66389,13.35119 -30.66389,29.81375 v 127.62258 c 0,16.46256 13.71808,29.81383 30.66389,29.81383 16.91488,0 30.63294,-13.35127 30.63294,-29.81383 V 335.35653 c 0,-16.46256 -13.71808,-29.81375 -30.63294,-29.81375 z m 388.23399,0 c -16.94583,0 -30.66391,13.35119 -30.66391,29.81375 v 127.62258 c 0,16.46256 13.71808,29.81383 30.66391,29.81383 16.91486,0 30.63294,-13.35127 30.63294,-29.81383 V 335.35653 c 0,-16.46256 -13.71808,-29.81375 -30.63294,-29.81375 z"
   id="Android"
   style="fill:#ffffff;fill-opacity:1;fill-rule:evenodd;stroke:none;stroke-width:10.7032" /></svg>
