<?xml version="1.0" encoding="UTF-8" standalone="no"?>
<svg
   width="1000"
   height="1000"
   viewBox="0 0 1000 1000"
   role="img"
   aria-labelledby="css-logo-title css-logo-description"
   version="1.1"
   id="svg1"
   sodipodi:docname="ic_css.svg"
   inkscape:version="1.3.2 (091e20e, 2023-11-25, custom)"
   xmlns:inkscape="http://www.inkscape.org/namespaces/inkscape"
   xmlns:sodipodi="http://sodipodi.sourceforge.net/DTD/sodipodi-0.dtd"
   xmlns="http://www.w3.org/2000/svg"
   xmlns:svg="http://www.w3.org/2000/svg"
   xmlns:rdf="http://www.w3.org/1999/02/22-rdf-syntax-ns#"
   xmlns:cc="http://creativecommons.org/ns#"
   xmlns:dc="http://purl.org/dc/elements/1.1/">
  <defs
     id="defs1" />
  <sodipodi:namedview
     id="namedview1"
     pagecolor="#ffffff"
     bordercolor="#000000"
     borderopacity="0.25"
     inkscape:showpageshadow="2"
     inkscape:pageopacity="0.0"
     inkscape:pagecheckerboard="0"
     inkscape:deskcolor="#d1d1d1"
     inkscape:zoom="0.787"
     inkscape:cx="499.36468"
     inkscape:cy="500"
     inkscape:window-width="1920"
     inkscape:window-height="1001"
     inkscape:window-x="1911"
     inkscape:window-y="-9"
     inkscape:window-maximized="1"
     inkscape:current-layer="svg1" />
  <title
     id="css-logo-title">CSS Logo</title>
  <desc
     id="css-logo-description">A purple square with rounded corners and the letters CSS inside in white</desc>
  <circle
     style="fill:#663399;fill-rule:evenodd;stroke-width:0;paint-order:markers stroke fill;fill-opacity:1;stroke:none"
     id="path1"
     cx="500"
     cy="500"
     r="500" />
  <path
     id="fg"
     fill="#ffffff"
     d="m 344.94918,804.2504 c -59.20412,-0.0553 -95.73314,-33.39507 -95.03261,-94.74687 0,0 0,-155.21379 0,-155.21379 0,-31.0999 9.10691,-54.75205 27.32072,-70.93801 32.71297,-31.5147 108.61002,-33.43194 140.65011,0.47931 19.74392,17.41189 27.19168,52.98229 25.42191,86.17457 h -67.95154 c 0.51618,-13.04278 -0.17513,-32.79593 -7.84411,-40.23446 -9.96413,-13.48523 -36.28015,-11.89982 -43.23937,2.13846 -4.27693,7.61367 -6.4154,18.8867 -6.4154,33.80064 v 134.74168 c 0,28.25169 9.81666,42.53884 29.45919,42.85224 9.18065,0 16.15831,-3.33674 20.90533,-10.00101 6.6274,-7.90863 7.65976,-25.42191 7.12514,-38.08678 h 67.95155 c 4.64563,64.58715 -33.47803,109.83594 -98.36014,109.03402 z m 215.72679,0 c -65.60108,0.90331 -94.94965,-45.7742 -93.1338,-109.03402 h 64.14471 c -1.77899,27.57881 7.69662,52.69655 30.40859,50.94522 10.13005,0 17.26441,-3.17083 21.38464,-9.5217 7.83489,-11.60485 9.30048,-45.11975 -1.89881,-58.0888 -7.82567,-12.48973 -35.97597,-23.51388 -50.84383,-30.9432 -21.22794,-10.15771 -36.51059,-22.21422 -45.85715,-36.18798 -21.08046,-31.00773 -19.12635,-99.06988 10.45267,-126.6487 28.74022,-34.03107 103.79846,-35.59805 132.56634,-0.70974 17.74372,17.98337 25.49565,53.36942 23.9932,85.93492 h -61.77581 c 0.5254,-13.38384 -0.7374,-34.98049 -5.93608,-42.85225 -3.64092,-6.66426 -10.53562,-10.001 -20.66567,-10.001 -18.05712,0 -27.08107,10.79371 -27.08107,32.37192 0.19357,22.91475 9.12534,32.31662 29.9385,41.89362 26.95202,10.4711 61.22275,28.35308 73.64796,49.99582 37.05443,65.94212 11.63251,166.67116 -79.35361,162.82745 z m 207.17293,0 c -65.60107,0.90331 -94.94965,-45.7742 -93.1338,-109.03402 h 64.14471 c -1.77898,27.57881 7.69663,52.69655 30.40859,50.94522 10.13005,0 17.26441,-3.17083 21.38464,-9.5217 7.83489,-11.60485 9.30048,-45.11975 -1.89881,-58.0888 -7.82567,-12.48973 -35.97597,-23.51388 -50.84382,-30.9432 -21.22795,-10.15771 -36.51059,-22.21422 -45.85716,-36.18798 -21.08046,-31.00773 -19.12635,-99.06988 10.45267,-126.6487 28.74022,-34.03107 103.79847,-35.59805 132.56634,-0.70974 17.74372,17.98337 25.49566,53.36942 23.9932,85.93492 h -61.7758 c 0.52539,-13.38384 -0.73741,-34.98049 -5.93609,-42.85225 -3.64091,-6.66426 -10.53562,-10.001 -20.66567,-10.001 -18.05712,0 -27.08107,10.79371 -27.08107,32.37192 0.19357,22.91475 9.12534,32.31662 29.9385,41.89362 26.95202,10.4711 61.22275,28.35308 73.64797,49.99582 37.05442,65.94212 11.63251,166.67116 -79.35361,162.82745 z"
     style="stroke-width:0.921752" />
  <metadata
     id="metadata1">
    <rdf:RDF>
      <cc:Work
         rdf:about="">
        <dc:title>CSS Logo</dc:title>
      </cc:Work>
    </rdf:RDF>
  </metadata>
</svg>
