<?xml version="1.0" encoding="UTF-8" standalone="no"?>
<!-- Uploaded to: SVG Repo, www.svgrepo.com, Generator: SVG Repo Mixer Tools -->

<svg
   width="800px"
   height="800px"
   viewBox="-47.5 0 351 351"
   preserveAspectRatio="xMidYMid"
   version="1.1"
   id="svg8"
   sodipodi:docname="ic_firebase_rounded.svg"
   inkscape:version="1.3.2 (091e20e, 2023-11-25, custom)"
   xmlns:inkscape="http://www.inkscape.org/namespaces/inkscape"
   xmlns:sodipodi="http://sodipodi.sourceforge.net/DTD/sodipodi-0.dtd"
   xmlns:xlink="http://www.w3.org/1999/xlink"
   xmlns="http://www.w3.org/2000/svg"
   xmlns:svg="http://www.w3.org/2000/svg">
  <sodipodi:namedview
     id="namedview8"
     pagecolor="#ffffff"
     bordercolor="#000000"
     borderopacity="0.25"
     inkscape:showpageshadow="2"
     inkscape:pageopacity="0.0"
     inkscape:pagecheckerboard="0"
     inkscape:deskcolor="#d1d1d1"
     inkscape:zoom="0.6956163"
     inkscape:cx="264.51364"
     inkscape:cy="375.92564"
     inkscape:window-width="1920"
     inkscape:window-height="1001"
     inkscape:window-x="1911"
     inkscape:window-y="-9"
     inkscape:window-maximized="1"
     inkscape:current-layer="svg8" />
  <defs
     id="defs2">
    <path
       d="M1.253 280.732l1.605-3.131 99.353-188.518-44.15-83.475C54.392-1.283 45.074.474 43.87 8.188L1.253 280.732z"
       id="a" />
    <filter
       x="-0.41601458"
       y="-0.15030569"
       width="1.8320292"
       height="1.3006114"
       filterUnits="objectBoundingBox"
       id="b">
      <feGaussianBlur
         stdDeviation="17.5"
         in="SourceAlpha"
         result="shadowBlurInner1"
         id="feGaussianBlur1" />
      <feOffset
         in="shadowBlurInner1"
         result="shadowOffsetInner1"
         id="feOffset1" />
      <feComposite
         in="shadowOffsetInner1"
         in2="SourceAlpha"
         operator="arithmetic"
         k2="-1"
         k3="1"
         result="shadowInnerInner1"
         id="feComposite1" />
      <feColorMatrix
         values="0 0 0 0 0 0 0 0 0 0 0 0 0 0 0 0 0 0 0.06 0"
         in="shadowInnerInner1"
         id="feColorMatrix1" />
    </filter>
    <path
       d="M134.417 148.974l32.039-32.812-32.039-61.007c-3.042-5.791-10.433-6.398-13.443-.59l-17.705 34.109-.53 1.744 31.678 58.556z"
       id="c" />
    <filter
       x="-0.13183295"
       y="-0.17669426"
       width="1.2793603"
       height="1.2619949"
       filterUnits="objectBoundingBox"
       id="d">
      <feGaussianBlur
         stdDeviation="3.5"
         in="SourceAlpha"
         result="shadowBlurInner1"
         id="feGaussianBlur2" />
      <feOffset
         dx="1"
         dy="-9"
         in="shadowBlurInner1"
         result="shadowOffsetInner1"
         id="feOffset2" />
      <feComposite
         in="shadowOffsetInner1"
         in2="SourceAlpha"
         operator="arithmetic"
         k2="-1"
         k3="1"
         result="shadowInnerInner1"
         id="feComposite2" />
      <feColorMatrix
         values="0 0 0 0 0 0 0 0 0 0 0 0 0 0 0 0 0 0 0.09 0"
         in="shadowInnerInner1"
         id="feColorMatrix2" />
    </filter>
  </defs>
  <circle
     style="fill:#f6820c;stroke-width:8.775;paint-order:markers stroke fill;fill-opacity:1"
     id="path9"
     cx="128"
     cy="175.5"
     r="175.5" />
  <path
     d="m 45.112129,236.56167 1.352668,-1.89361 63.972363,-121.3859 0.13507,-1.28514 -28.199597,-52.970699 c -2.363825,-4.43711 -9.015665,-3.315089 -9.79044,1.652128 z"
     fill="#ffc24a"
     id="path2"
     style="stroke:#ffffff;stroke-width:1.31625;stroke-opacity:1;stroke-dasharray:none" />
  <use
     fill="#ffa712"
     fill-rule="evenodd"
     xlink:href="#a"
     id="use2"
     transform="matrix(0.63714953,0,0,0.63714953,45.112129,56.249623)"
     style="stroke:#ffffff;stroke-opacity:1;stroke-width:2.06584159;stroke-dasharray:none" />
  <use
     filter="url(#b)"
     xlink:href="#a"
     id="use3"
     transform="matrix(0.63714953,0,0,0.63714953,45.112129,56.249623)"
     style="stroke:#ffffff;stroke-opacity:1;stroke-width:2.06584159;stroke-dasharray:none" />
  <path
     d="m 131.1305,152.06417 20.99727,-21.5038 -21.00364,-40.095817 c -1.99364,-3.7955 -7.56041,-3.806969 -9.53303,0 l -11.22212,21.399937 v 1.82225 l 20.76088,38.37743 z"
     fill="#f4bd62"
     id="path3"
     style="stroke:#ffffff;stroke-width:1.31625;stroke-opacity:1;stroke-dasharray:none" />
  <use
     fill="#ffa50e"
     fill-rule="evenodd"
     xlink:href="#c"
     id="use4"
     transform="matrix(0.63714953,0,0,0.63714953,45.112129,56.249623)"
     style="stroke:#ffffff;stroke-opacity:1;stroke-width:2.06584159;stroke-dasharray:none" />
  <use
     filter="url(#d)"
     xlink:href="#c"
     id="use5"
     transform="matrix(0.63714953,0,0,0.63714953,45.112129,56.249623)"
     style="stroke:#ffffff;stroke-opacity:1;stroke-width:2.06584159;stroke-dasharray:none" />
  <path
     fill="#f6820c"
     d="m 45.112129,236.56167 0.612937,-0.61676 2.227475,-0.90476 81.859059,-81.55514 1.03728,-2.82321 -20.42065,-38.91327 z"
     id="path5"
     style="stroke:#ffffff;stroke-width:1.31625;stroke-opacity:1;stroke-dasharray:none" />
  <path
     d="m 133.75301,277.69158 74.08456,-41.31723 -21.15592,-130.2939 c -0.66199,-4.07648 -5.66298,-5.68783 -8.58112,-2.76523 L 45.112129,236.56167 118.77171,277.68839 a 15.371869,15.371869 0 0 0 14.9813,0.003"
     fill="#fde068"
     id="path6"
     style="stroke:#ffffff;stroke-width:1.31625;stroke-opacity:1;stroke-dasharray:none" />
  <path
     d="M 207.17366,236.02774 186.17831,106.72333 c -0.65627,-4.04589 -4.81558,-5.71969 -7.71142,-2.81874 L 45.934051,236.30808 118.78509,277.02703 a 15.255271,15.255271 0 0 0 14.86725,0.003 l 73.52196,-41.00376 z"
     fill="#fcca3f"
     id="path7"
     style="stroke:#ffffff;stroke-width:1.31625;stroke-opacity:1;stroke-dasharray:none" />
  <path
     d="m 133.75237,276.47398 a 15.371869,15.371869 0 0 1 -14.98066,-0.003 l -73.066396,-40.53546 -0.592548,0.62632 73.658944,41.12673 a 15.371869,15.371869 0 0 0 14.9813,0.003 l 74.08456,-41.31723 -0.18158,-1.11629 -73.90298,41.21657 z"
     fill="#eeab37"
     id="path8"
     style="stroke:#ffffff;stroke-width:1.31625;stroke-opacity:1;stroke-dasharray:none" />
</svg>
