<?xml version="1.0" encoding="UTF-8" standalone="no"?>
<!-- Uploaded to: SVG Repo, www.svgrepo.com, Generator: SVG Repo Mixer Tools -->

<svg
   width="800px"
   height="800px"
   viewBox="0 0 73 73"
   version="1.1"
   id="svg1"
   sodipodi:docname="github1.svg"
   inkscape:version="1.3.2 (091e20e, 2023-11-25, custom)"
   xmlns:inkscape="http://www.inkscape.org/namespaces/inkscape"
   xmlns:sodipodi="http://sodipodi.sourceforge.net/DTD/sodipodi-0.dtd"
   xmlns="http://www.w3.org/2000/svg"
   xmlns:svg="http://www.w3.org/2000/svg"
   xmlns:rdf="http://www.w3.org/1999/02/22-rdf-syntax-ns#"
   xmlns:cc="http://creativecommons.org/ns#"
   xmlns:dc="http://purl.org/dc/elements/1.1/">
  <sodipodi:namedview
     id="namedview1"
     pagecolor="#ffffff"
     bordercolor="#000000"
     borderopacity="0.25"
     inkscape:showpageshadow="2"
     inkscape:pageopacity="0.0"
     inkscape:pagecheckerboard="0"
     inkscape:deskcolor="#d1d1d1"
     inkscape:zoom="0.98375"
     inkscape:cx="399.49174"
     inkscape:cy="400"
     inkscape:window-width="1920"
     inkscape:window-height="1001"
     inkscape:window-x="1911"
     inkscape:window-y="-9"
     inkscape:window-maximized="1"
     inkscape:current-layer="container" />
  <title
     id="title1">team-collaboration/version-control/github</title>
  <desc
     id="desc1">Created with Sketch.</desc>
  <defs
     id="defs1" />
  <g
     id="team-collaboration/version-control/github"
     stroke="none"
     stroke-width="1"
     fill="none"
     fill-rule="evenodd">
    <g
       id="container"
       transform="translate(2.000000, 2.000000)"
       fill-rule="nonzero">
      <circle
         style="fill:#000000;stroke-width:1.825;paint-order:markers stroke fill"
         id="path1"
         cx="36.5"
         cy="36.5"
         r="36.5"
         transform="translate(-2,-2)" />
      <path
         d="m 55.254784,23.111235 c -2.095798,-3.590903 -4.938614,-6.433826 -8.529196,-8.52941 -3.591117,-2.095691 -7.511546,-3.143269 -11.764066,-3.143269 -4.251985,0 -8.173697,1.047899 -11.764065,3.143269 -3.590903,2.095478 -6.433612,4.938507 -8.52941,8.52941 -2.095477,3.590796 -3.143269,7.511973 -3.143269,11.763424 0,5.106958 1.489974,9.699265 4.470672,13.778097 2.980376,4.079153 6.830582,6.901767 11.550295,8.468165 0.549389,0.101968 0.956085,0.03025 1.220518,-0.213342 0.26454,-0.243912 0.39665,-0.549388 0.39665,-0.915148 0,-0.06103 -0.0052,-0.610099 -0.01539,-1.647844 -0.01047,-1.037745 -0.01539,-1.943059 -0.01539,-2.715516 l -0.701912,0.121421 c -0.447527,0.08198 -1.012093,0.116718 -1.693698,0.106885 -0.681284,-0.0095 -1.38854,-0.08091 -2.120808,-0.213663 -0.732589,-0.131575 -1.41398,-0.436731 -2.044707,-0.914827 -0.630407,-0.478096 -1.077934,-1.103907 -1.342474,-1.87647 L 20.923375,48.150183 C 20.719973,47.682669 20.399746,47.163316 19.962267,46.594047 19.524787,46.024244 19.08239,45.637962 18.634864,45.43456 l -0.213663,-0.152952 c -0.142371,-0.101647 -0.27448,-0.224244 -0.39665,-0.366508 -0.122062,-0.142264 -0.213449,-0.284634 -0.27448,-0.427219 -0.06114,-0.142691 -0.01047,-0.25973 0.152525,-0.351544 0.162999,-0.09181 0.457574,-0.136385 0.885006,-0.136385 l 0.610099,0.09117 c 0.40691,0.08155 0.910231,0.325144 1.510603,0.732268 0.600052,0.406804 1.093325,0.93567 1.479928,1.586385 0.468155,0.834343 1.032186,1.470094 1.693697,1.907573 0.660976,0.43748 1.327402,0.655846 1.998639,0.655846 0.671237,0 1.25098,-0.05088 1.739444,-0.152097 0.487929,-0.101755 0.945717,-0.254707 1.373149,-0.458002 0.183094,-1.363637 0.681605,-2.411215 1.495106,-3.143483 -1.159487,-0.121849 -2.201935,-0.30537 -3.127878,-0.549388 -0.925409,-0.244339 -1.881708,-0.640881 -2.868255,-1.190697 -0.987081,-0.549067 -1.805926,-1.230886 -2.456748,-2.044279 -0.650928,-0.813822 -1.185139,-1.882242 -1.601883,-3.204301 -0.416957,-1.322593 -0.62549,-2.848267 -0.62549,-4.57745 0,-2.462092 0.803774,-4.557249 2.411001,-6.286645 -0.752896,-1.851032 -0.681818,-3.926094 0.213449,-6.224973 0.590005,-0.183307 1.464964,-0.04575 2.624451,0.411827 1.1597,0.457788 2.008793,0.849949 2.548134,1.175092 0.539341,0.325037 0.971476,0.600479 1.297048,0.823868 1.892396,-0.528759 3.845288,-0.793192 5.859212,-0.793192 2.013925,0 3.967245,0.264433 5.859748,0.793192 l 1.159593,-0.732054 c 0.792979,-0.488463 1.729397,-0.936097 2.80701,-1.343008 1.078254,-0.406696 1.902764,-0.518712 2.472674,-0.335404 0.915148,2.298986 0.996701,4.373941 0.24359,6.224973 1.607121,1.729396 2.411215,3.825087 2.411215,6.286645 0,1.729183 -0.20928,3.259667 -0.625597,4.592414 -0.416851,1.33296 -0.955657,2.400312 -1.616633,3.2043 -0.661724,0.803881 -1.485806,1.480355 -2.472353,2.029316 -0.986761,0.549388 -1.94338,0.94593 -2.868789,1.190269 -0.925836,0.244339 -1.968284,0.427967 -3.127771,0.550029 1.057519,0.915148 1.586385,2.359697 1.586385,4.333005 v 6.438422 c 0,0.365759 0.127193,0.671129 0.381792,0.915147 0.254279,0.243591 0.655846,0.315311 1.205234,0.213236 4.720355,-1.566184 8.57056,-4.388905 11.55083,-8.468058 2.979949,-4.078832 4.470458,-8.671139 4.470458,-13.778097 -0.0011,-4.250916 -1.049395,-8.171773 -3.14391,-11.762569 z"
         id="Shape"
         fill="#ffffff"
         style="stroke-width:0.869267" />
    </g>
  </g>
  <metadata
     id="metadata1">
    <rdf:RDF>
      <cc:Work
         rdf:about="">
        <dc:title>team-collaboration/version-control/github</dc:title>
      </cc:Work>
    </rdf:RDF>
  </metadata>
</svg>
