<?xml version="1.0" encoding="UTF-8" standalone="no"?>
<!-- Uploaded to: SVG Repo, www.svgrepo.com, Generator: SVG Repo Mixer Tools -->

<svg
   width="800px"
   height="800px"
   viewBox="0 0 32 32"
   fill="none"
   version="1.1"
   id="svg2"
   sodipodi:docname="git.svg"
   inkscape:version="1.3.2 (091e20e, 2023-11-25, custom)"
   xmlns:inkscape="http://www.inkscape.org/namespaces/inkscape"
   xmlns:sodipodi="http://sodipodi.sourceforge.net/DTD/sodipodi-0.dtd"
   xmlns="http://www.w3.org/2000/svg"
   xmlns:svg="http://www.w3.org/2000/svg"
   xmlns:rdf="http://www.w3.org/1999/02/22-rdf-syntax-ns#"
   xmlns:cc="http://creativecommons.org/ns#"
   xmlns:dc="http://purl.org/dc/elements/1.1/">
  <title
     id="title3">team-collaboration/version-control/github</title>
  <defs
     id="defs2" />
  <sodipodi:namedview
     id="namedview2"
     pagecolor="#ffffff"
     bordercolor="#000000"
     borderopacity="0.25"
     inkscape:showpageshadow="2"
     inkscape:pageopacity="0.0"
     inkscape:pagecheckerboard="0"
     inkscape:deskcolor="#d1d1d1"
     inkscape:zoom="0.491875"
     inkscape:cx="280.55908"
     inkscape:cy="287.67471"
     inkscape:window-width="1920"
     inkscape:window-height="1001"
     inkscape:window-x="1911"
     inkscape:window-y="-9"
     inkscape:window-maximized="1"
     inkscape:current-layer="svg2" />
  <circle
     style="fill:#ee513b;stroke:none;stroke-width:0.8;paint-order:markers stroke fill;fill-opacity:1"
     id="path3"
     cx="15.999988"
     cy="16"
     r="15.999988" />
  <path
     d="m 5.8580548,17.068426 c -0.5900705,-0.590085 -0.5900705,-1.546773 0,-2.136858 L 14.931568,5.8580548 c 0.590085,-0.5900705 1.546773,-0.5900705 2.136858,0 l 9.073483,9.0735132 c 0.590085,0.590085 0.590085,1.546773 0,2.136858 l -9.073483,9.073483 c -0.590085,0.590085 -1.546773,0.590085 -2.136858,0 z"
     fill="#EE513B"
     id="path1"
     style="fill:#ffffff;fill-opacity:1;stroke-width:0.756035" />
  <path
     d="m 13.088429,7.7301193 -0.91881,0.91884 2.37312,2.3731267 c -0.09602,0.205959 -0.14962,0.435658 -0.14962,0.677884 0,0.68769 0.432075,1.274449 1.039549,1.503603 v 5.805293 c -0.607474,0.229155 -1.039549,0.815914 -1.039549,1.503604 0,0.887283 0.719292,1.606575 1.606576,1.606575 0.887283,0 1.606575,-0.719292 1.606575,-1.606575 0,-0.623427 -0.35511,-1.163992 -0.874128,-1.430268 v -5.87069 l 2.268484,2.268484 c -0.09133,0.201786 -0.142135,0.425799 -0.142135,0.661682 0,0.887283 0.719292,1.606575 1.606575,1.606575 0.887283,0 1.606575,-0.719292 1.606575,-1.606575 0,-0.887283 -0.719292,-1.606575 -1.606575,-1.606575 -0.172451,0 -0.338477,0.02714 -0.49422,0.07742 l -2.436324,-2.436324 c 0.04665,-0.150451 0.07175,-0.310428 0.07175,-0.476227 0,-0.887298 -0.719292,-1.60659 -1.606575,-1.60659 -0.165799,0 -0.3257,0.02512 -0.476227,0.07176 z"
     fill="white"
     id="path2"
     style="fill:#ee513b;fill-opacity:1;stroke-width:0.756035" />
  <metadata
     id="metadata3">
    <rdf:RDF>
      <cc:Work
         rdf:about="">
        <dc:title>team-collaboration/version-control/github</dc:title>
      </cc:Work>
    </rdf:RDF>
  </metadata>
</svg>
