<?xml version="1.0" encoding="UTF-8" standalone="no"?>
<!-- Uploaded to: SVG Repo, www.svgrepo.com, Generator: SVG Repo Mixer Tools -->

<svg
   width="800"
   height="800"
   viewBox="0 0 800 800"
   version="1.1"
   id="svg1"
   sodipodi:docname="ic_mongodb.svg"
   inkscape:version="1.3.2 (091e20e, 2023-11-25, custom)"
   xmlns:inkscape="http://www.inkscape.org/namespaces/inkscape"
   xmlns:sodipodi="http://sodipodi.sourceforge.net/DTD/sodipodi-0.dtd"
   xmlns="http://www.w3.org/2000/svg"
   xmlns:svg="http://www.w3.org/2000/svg">
  <defs
     id="defs1">
    <inkscape:path-effect
       effect="fillet_chamfer"
       id="path-effect1"
       nodesatellites_param="F,0,0,1,0,200,0,1 @ F,0,0,1,0,200,0,1 @ F,0,0,1,0,200,0,1 @ F,0,0,1,0,200,0,1"
       is_visible="true"
       lpeversion="1"
       radius="200"
       unit="px"
       method="auto"
       mode="F"
       chamfer_steps="1"
       flexible="false"
       use_knot_distance="true"
       apply_no_radius="true"
       apply_with_radius="true"
       only_selected="false"
       hide_knots="false" />
  </defs>
  <sodipodi:namedview
     id="namedview1"
     pagecolor="#ffffff"
     bordercolor="#000000"
     borderopacity="0.25"
     inkscape:showpageshadow="2"
     inkscape:pageopacity="0.0"
     inkscape:pagecheckerboard="0"
     inkscape:deskcolor="#d1d1d1"
     inkscape:zoom="0.6956163"
     inkscape:cx="280.32696"
     inkscape:cy="463.61766"
     inkscape:window-width="1920"
     inkscape:window-height="1001"
     inkscape:window-x="1911"
     inkscape:window-y="-9"
     inkscape:window-maximized="1"
     inkscape:current-layer="svg1"
     showguides="true" />
  <ellipse
     style="fill:#13aa52;stroke:#ffffff;stroke-width:1.675;paint-order:markers stroke fill;fill-opacity:1"
     id="path2"
     cx="400"
     cy="400.00391"
     rx="400"
     ry="399.99609" />
  <path
     d="M 506.92187,351.125 C 481.65625,239.61719 421.94531,202.95312 415.51562,188.94531 c -7.03125,-9.88281 -14.15625,-27.46094 -14.15625,-27.46094 -0.11718,-0.29687 -0.30468,-0.82031 -0.52343,-1.32812 -0.72656,9.88281 -1.10157,13.69531 -10.44531,23.66406 -14.46875,11.3125 -88.70313,73.60156 -94.74219,200.28906 -5.63281,118.15625 85.35156,188.5625 97.65625,197.53907 l 1.39844,0.99218 v -0.0859 c 0.0781,0.59375 3.90625,28.125 6.59375,57.29687 h 9.64062 A 567.71875,567.71875 0 0 1 421.09375,578.5 l 0.78125,-0.50781 a 159.75,159.75 0 0 0 15.71094,-12.85157 l 0.5625,-0.50781 c 26.15625,-24.16406 73.17968,-80.05469 72.71875,-169.16406 A 271.14844,271.14844 0 0 0 506.92187,351.125 Z M 400.27344,514.9375 c 0,0 0,-165.71875 5.46875,-165.6875 4.26562,0 9.78906,213.75781 9.78906,213.75781 -7.59375,-0.91406 -15.25781,-35.17969 -15.25781,-48.07031 z"
     style="fill:#ffffff;stroke-width:0.78125"
     id="path1" />
</svg>
