<?xml version="1.0" encoding="UTF-8" standalone="no"?>
<!-- Uploaded to: SVG Repo, www.svgrepo.com, Generator: SVG Repo Mixer Tools -->

<svg
   width="800"
   height="800"
   viewBox="-18.458 -22.75 800 800"
   version="1.1"
   id="svg5"
   sodipodi:docname="ic_mysql_rounded.svg"
   inkscape:version="1.3.2 (091e20e, 2023-11-25, custom)"
   xmlns:inkscape="http://www.inkscape.org/namespaces/inkscape"
   xmlns:sodipodi="http://sodipodi.sourceforge.net/DTD/sodipodi-0.dtd"
   xmlns="http://www.w3.org/2000/svg"
   xmlns:svg="http://www.w3.org/2000/svg">
  <defs
     id="defs5">
    <inkscape:path-effect
       effect="fillet_chamfer"
       id="path-effect3"
       is_visible="true"
       lpeversion="1"
       nodesatellites_param="F,0,0,1,0,200,0,1 @ F,0,0,1,0,200,0,1 @ F,0,0,1,0,200,0,1 @ F,0,0,1,0,200,0,1"
       radius="200"
       unit="px"
       method="auto"
       mode="F"
       chamfer_steps="1"
       flexible="false"
       use_knot_distance="true"
       apply_no_radius="true"
       apply_with_radius="true"
       only_selected="false"
       hide_knots="false" />
    <inkscape:path-effect
       effect="fillet_chamfer"
       id="path-effect2"
       is_visible="true"
       lpeversion="1"
       nodesatellites_param="F,0,0,1,0,200,0,1 @ F,0,0,1,0,200,0,1 @ F,0,0,1,0,200,0,1 @ F,0,0,1,0,200,0,1"
       radius="200"
       unit="px"
       method="auto"
       mode="F"
       chamfer_steps="1"
       flexible="false"
       use_knot_distance="true"
       apply_no_radius="true"
       apply_with_radius="true"
       only_selected="false"
       hide_knots="false" />
    <inkscape:path-effect
       effect="fillet_chamfer"
       id="path-effect1"
       is_visible="true"
       lpeversion="1"
       nodesatellites_param="F,0,0,1,0,2000,0,1 @ F,0,0,1,0,2000,0,1 @ F,0,0,1,0,2000,0,1 @ F,0,0,1,0,2000,0,1"
       radius="200"
       unit="px"
       method="auto"
       mode="F"
       chamfer_steps="1"
       flexible="false"
       use_knot_distance="true"
       apply_no_radius="true"
       apply_with_radius="true"
       only_selected="false"
       hide_knots="false" />
    <inkscape:path-effect
       effect="fillet_chamfer"
       id="path-effect5"
       is_visible="true"
       lpeversion="1"
       nodesatellites_param="F,0,0,1,0,232,0,1 @ F,0,0,1,0,232,0,1 @ F,0,0,1,0,232,0,1 @ F,0,0,1,0,232,0,1"
       radius="232"
       unit="px"
       method="auto"
       mode="F"
       chamfer_steps="1"
       flexible="false"
       use_knot_distance="true"
       apply_no_radius="true"
       apply_with_radius="true"
       only_selected="false"
       hide_knots="false" />
  </defs>
  <sodipodi:namedview
     id="namedview5"
     pagecolor="#ffffff"
     bordercolor="#000000"
     borderopacity="0.25"
     inkscape:showpageshadow="2"
     inkscape:pageopacity="0.0"
     inkscape:pagecheckerboard="0"
     inkscape:deskcolor="#d1d1d1"
     inkscape:zoom="0.6956163"
     inkscape:cx="290.38998"
     inkscape:cy="314.10995"
     inkscape:window-width="1920"
     inkscape:window-height="1001"
     inkscape:window-x="1911"
     inkscape:window-y="-9"
     inkscape:window-maximized="1"
     inkscape:current-layer="svg5" />
  <circle
     style="fill:#5d87a1;stroke:none;stroke-width:1.675;paint-order:markers stroke fill;fill-opacity:1"
     id="path1"
     cx="381.54199"
     cy="377.25"
     r="400" />
  <path
     d="m 237.26232,534.56422 h -21.73866 c -0.76872,-36.69318 -2.88588,-71.18937 -6.34726,-103.51374 h -0.19322 L 175.8858,534.56422 H 159.33501 L 126.4351,431.05048 h -0.18903 c -2.44061,31.03475 -3.97807,65.53934 -4.61657,103.51374 h -19.81472 c 1.27702,-46.17838 4.48636,-89.47078 9.61542,-129.88156 h 26.94331 l 31.35825,95.43576 h 0.19322 l 31.5515,-95.43576 h 25.77973 c 5.64575,47.33352 8.98111,90.63018 10.00609,129.88156 m 94.27642,-95.82644 c -8.85088,48.0308 -20.52885,82.93024 -35.02128,104.71513 -11.29148,16.76921 -23.66256,25.16223 -37.13423,25.16223 -3.5916,0 -8.02334,-1.08382 -13.27423,-3.23457 v -11.58134 c 2.56664,0.36955 5.57855,0.5797 9.03993,0.5797 6.29265,0 11.3503,-1.73068 15.20654,-5.20047 4.61238,-4.2259 6.91857,-8.9769 6.91857,-14.23198 0,-3.60423 -1.7979,-10.97224 -5.38531,-22.1293 l -23.85579,-74.0836 h 21.35638 l 17.12209,55.40723 c 3.84784,12.58112 5.45251,21.3648 4.80979,26.36782 9.36339,-25.00679 15.90388,-52.27354 19.62991,-81.77925 h 20.58765 z"
     fill="#5d87a1"
     id="path2"
     style="stroke-width:4.2007;fill:#ffffff" />
  <path
     d="M 620.90426,534.56422 H 559.15389 V 404.68266 h 20.77246 v 113.89367 h 40.97791 z m -77.9147,3.13794 -23.87679,-11.78301 c 2.11714,-1.73909 4.14189,-3.621 5.96497,-5.80118 10.14893,-11.92157 15.21075,-29.55195 15.21075,-52.90367 0,-42.96894 -16.86161,-64.46396 -50.59749,-64.46396 -16.54235,0 -29.44688,5.45253 -38.67581,16.36175 -10.1405,11.93 -15.20235,29.49733 -15.20235,52.72299 0,22.83081 4.48635,39.57906 13.46327,50.20264 8.21236,9.62381 20.59178,14.44202 37.14677,14.44202 6.17501,0 11.84176,-0.75613 17.00444,-2.28098 l 31.08523,18.09662 z m -77.34758,-29.12769 c -5.25923,-8.46023 -7.88885,-22.04531 -7.88885,-40.77629 0,-32.7024 9.9346,-49.07255 29.82494,-49.07255 10.39672,0 18.01683,3.91506 22.88963,11.72837 5.25089,8.47282 7.89312,21.93606 7.89312,40.4065 0,32.97137 -9.94306,49.45911 -29.82079,49.45911 -10.40095,0.004 -18.02105,-3.89826 -22.89805,-11.74514 m -38.88165,-10.01028 c 0,11.01423 -4.04108,20.04993 -12.11482,27.12813 -8.08216,7.04878 -18.91998,10.58156 -32.50087,10.58156 -12.70292,0 -25.01941,-4.05785 -36.941,-12.13161 l 5.58274,-11.15288 c 10.25813,5.13744 19.54589,7.69149 27.88428,7.69149 7.82592,0 13.94214,-1.73489 18.37808,-5.17527 4.43175,-3.45298 7.07401,-8.29639 7.07401,-14.42102 0,-7.71669 -5.38111,-14.31178 -15.25277,-19.83575 -9.10293,-4.99884 -27.30878,-15.45017 -27.30878,-15.45017 -9.86745,-7.19161 -14.80749,-14.91246 -14.80749,-27.63218 0,-10.52696 3.68401,-19.02499 11.05625,-25.48988 7.38065,-6.4901 16.90364,-9.72463 28.5774,-9.72463 12.05603,0 23.01566,3.23035 32.88732,9.62381 l -5.00724,11.15708 c -8.44341,-3.58741 -16.77762,-5.3811 -24.9984,-5.3811 -6.65812,0 -11.79978,1.60046 -15.37457,4.814 -3.6042,3.20094 -5.82638,7.29662 -5.82638,12.32067 0,7.67888 5.49453,14.35798 15.63503,19.99111 9.22475,5.00724 27.88427,15.63919 27.88427,15.63919 10.1195,7.17902 15.17296,14.8285 15.17296,27.44745"
     fill="#f8981d"
     id="path3"
     style="stroke-width:4.2007" />
  <path
     d="m 646.83126,361.69007 c -16.18122,-0.41128 -28.70947,1.21764 -39.22455,5.66614 -3.03602,1.21222 -7.8633,1.21222 -8.28543,5.04918 1.63976,1.62354 1.82921,4.24282 3.25249,6.48331 2.42446,4.0426 6.65104,9.48143 10.50963,12.31722 4.23742,3.24705 8.49109,6.46165 12.95039,9.29201 7.86333,4.86519 16.77656,7.69556 24.43959,12.5445 4.46474,2.81954 8.90239,6.46707 13.37252,9.5031 2.19719,1.61811 3.60422,4.24282 6.45623,5.25482 v -0.61693 c -1.42869,-1.81836 -1.83458,-4.44849 -3.2362,-6.47249 l -6.07203,-5.85554 c -5.86637,-7.87955 -13.15605,-14.75792 -21.01938,-20.40782 -6.47244,-4.4593 -20.62967,-10.52049 -23.2544,-17.97792 l -0.41125,-0.41131 c 4.44848,-0.41671 9.725,-2.02941 13.95157,-3.2687 6.87836,-1.81294 13.15065,-1.40166 20.20757,-3.2146 3.24705,-0.81177 6.46707,-1.82919 9.72497,-2.83035 v -1.82377 c -3.65834,-3.64213 -6.26681,-8.48026 -10.11464,-11.92215 -10.2932,-8.89155 -21.63626,-17.58828 -33.35818,-24.86713 -6.27766,-4.05341 -14.35202,-6.66189 -21.03556,-10.10919 -2.40822,-1.21765 -6.46707,-1.81836 -7.88498,-3.84237 -3.62588,-4.44846 -5.66611,-10.30402 -8.29624,-15.56967 -5.84471,-11.11038 -11.52167,-23.43842 -16.56546,-35.18738 -3.64752,-7.87955 -5.86636,-15.74828 -10.31485,-23.03794 -20.83538,-34.36479 -43.46201,-55.17849 -78.23811,-75.60795 -7.47365,-4.25366 -16.36514,-6.06661 -25.86281,-8.29627 l -15.16921,-0.80093 c -3.23625,-1.41789 -6.47789,-5.26565 -9.30285,-7.08402 -11.5379,-7.27343 -41.24315,-23.03791 -49.72881,-2.22424 -5.46591,13.15603 8.0852,26.09017 12.73932,32.76289 3.43649,4.63249 7.89037,9.90356 10.29319,15.16382 1.42329,3.43648 1.82378,7.084 3.24707,10.71531 3.23624,8.89695 6.26143,18.7951 10.51508,27.09677 2.21883,4.232 4.6379,8.68048 7.47368,12.51202 1.62353,2.24047 4.44847,3.23082 5.06542,6.88377 -2.81954,4.02637 -3.04142,10.10379 -4.65953,15.15839 -7.27343,22.84313 -4.43225,51.1413 5.87719,67.92864 3.22543,5.05461 10.92097,16.18121 21.21418,11.91673 9.11342,-3.63672 7.09485,-15.15839 9.71413,-25.26217 0.6007,-2.44072 0.20552,-4.0426 1.41788,-5.64448 v 0.39507 c 2.8195,5.6553 5.6661,11.10498 8.27995,16.77649 6.27224,9.89816 17.1932,20.21301 26.2904,27.06973 4.84357,3.65837 8.68051,9.91439 14.74709,12.14944 v -0.60612 h -0.40032 c -1.22847,-1.81295 -3.02521,-2.62471 -4.63791,-4.03178 -3.64756,-3.64212 -7.68472,-8.09061 -10.51508,-12.12778 -8.47484,-11.32686 -15.97555,-23.86595 -22.63205,-36.80551 -3.25787,-6.27766 -6.06655,-13.13981 -8.69125,-19.40664 -1.22307,-2.41907 -1.22307,-6.0666 -3.25244,-7.28426 -3.0414,4.44308 -7.47366,8.29086 -9.6925,13.7351 -3.84777,8.70755 -4.24823,19.41747 -5.67694,30.55489 l -0.79554,0.38966 c -6.44014,-1.61815 -8.68062,-8.28005 -11.12673,-13.93535 -6.05579,-14.36287 -7.07321,-37.41703 -1.81837,-53.98789 1.40707,-4.23743 7.49531,-17.58286 5.06543,-21.62006 -1.21765,-3.86942 -5.26567,-6.07201 -7.4845,-9.11884 -2.60848,-3.83153 -5.46589,-8.68049 -7.28425,-12.93413 -4.84894,-11.31603 -7.28966,-23.85512 -12.51202,-35.16573 -2.44071,-5.27108 -6.67814,-10.72615 -10.1092,-15.58052 -3.8532,-5.45506 -8.09061,-9.29742 -11.13744,-15.7645 -1.00659,-2.22424 -2.41907,-5.86096 -0.80094,-8.28002 0.39507,-1.62354 1.21764,-2.22966 2.83035,-2.63554 2.6193,-2.21342 10.10379,0.6007 12.72851,1.81836 7.4953,3.0306 13.76215,5.86096 20.01816,10.10379 2.83036,2.02941 5.86637,5.87177 9.49767,6.88378 h 4.25366 c 6.45625,1.40705 13.73509,0.38965 19.81251,2.21883 10.70986,3.44189 20.41311,8.49108 29.11527,13.94074 26.47983,16.79274 48.31635,40.65326 63.05803,69.15168 2.41907,4.64331 3.44727,8.89696 5.65531,13.7405 4.25908,9.91439 9.5247,20.02358 13.75131,29.72692 4.24827,9.49765 8.29627,19.19555 14.36287,27.08593 3.02516,4.24284 15.18003,6.46708 20.6297,8.69131 4.03176,1.81295 10.30942,3.42565 13.94613,5.6499 6.8784,4.23741 13.7297,9.10261 20.19677,13.76216 3.22003,2.42449 13.34002,7.47908 13.94073,11.52709 M 440.61013,186.00213 a 31.496544,31.496544 0 0 0 -8.27461,1.01741 v 0.40587 h 0.38966 c 1.62895,3.23083 4.4593,5.4713 6.4779,8.29085 1.62895,3.24166 3.04142,6.45626 4.6379,9.69248 l 0.38964,-0.40045 c 2.85202,-2.01859 4.26991,-5.25483 4.26991,-10.10919 -1.22848,-1.42872 -1.41789,-2.82494 -2.44071,-4.24284 -1.19058,-2.02401 -3.8153,-3.03059 -5.44965,-4.65413"
     fill="#5d87a1"
     id="path4"
     style="stroke-width:5.41176;fill:#ffffff" />
  <path
     d="m 661.92833,534.54322 h 3.25135 v -15.91228 h -4.87703 l -3.97805,10.85882 -4.32252,-10.85882 h -4.69639 v 15.91228 h 3.07072 v -12.10643 h 0.1724 l 4.52837,12.10643 h 2.33979 l 4.51155,-12.10643 z m -26.19139,0 h 3.44038 v -13.21543 h 4.50314 v -2.70107 h -12.63572 v 2.70107 h 4.68379 z"
     fill="#f8981d"
     id="path5"
     style="stroke-width:4.2007" />
</svg>
