<?xml version="1.0" encoding="UTF-8" standalone="no"?>
<!-- Uploaded to: SVG Repo, www.svgrepo.com, Generator: SVG Repo Mixer Tools -->

<svg
   width="800"
   height="800"
   viewBox="-18.458 -22.75 800 800"
   version="1.1"
   id="svg5"
   sodipodi:docname="ic_mysql.svg"
   inkscape:version="1.3.2 (091e20e, 2023-11-25, custom)"
   xmlns:inkscape="http://www.inkscape.org/namespaces/inkscape"
   xmlns:sodipodi="http://sodipodi.sourceforge.net/DTD/sodipodi-0.dtd"
   xmlns="http://www.w3.org/2000/svg"
   xmlns:svg="http://www.w3.org/2000/svg">
  <defs
     id="defs5">
    <inkscape:path-effect
       effect="fillet_chamfer"
       id="path-effect3"
       is_visible="true"
       lpeversion="1"
       nodesatellites_param="F,0,0,1,0,200,0,1 @ F,0,0,1,0,200,0,1 @ F,0,0,1,0,200,0,1 @ F,0,0,1,0,200,0,1"
       radius="200"
       unit="px"
       method="auto"
       mode="F"
       chamfer_steps="1"
       flexible="false"
       use_knot_distance="true"
       apply_no_radius="true"
       apply_with_radius="true"
       only_selected="false"
       hide_knots="false" />
    <inkscape:path-effect
       effect="fillet_chamfer"
       id="path-effect2"
       is_visible="true"
       lpeversion="1"
       nodesatellites_param="F,0,0,1,0,200,0,1 @ F,0,0,1,0,200,0,1 @ F,0,0,1,0,200,0,1 @ F,0,0,1,0,200,0,1"
       radius="200"
       unit="px"
       method="auto"
       mode="F"
       chamfer_steps="1"
       flexible="false"
       use_knot_distance="true"
       apply_no_radius="true"
       apply_with_radius="true"
       only_selected="false"
       hide_knots="false" />
    <inkscape:path-effect
       effect="fillet_chamfer"
       id="path-effect1"
       is_visible="true"
       lpeversion="1"
       nodesatellites_param="F,0,0,1,0,2000,0,1 @ F,0,0,1,0,2000,0,1 @ F,0,0,1,0,2000,0,1 @ F,0,0,1,0,2000,0,1"
       radius="200"
       unit="px"
       method="auto"
       mode="F"
       chamfer_steps="1"
       flexible="false"
       use_knot_distance="true"
       apply_no_radius="true"
       apply_with_radius="true"
       only_selected="false"
       hide_knots="false" />
    <inkscape:path-effect
       effect="fillet_chamfer"
       id="path-effect5"
       is_visible="true"
       lpeversion="1"
       nodesatellites_param="F,0,0,1,0,232,0,1 @ F,0,0,1,0,232,0,1 @ F,0,0,1,0,232,0,1 @ F,0,0,1,0,232,0,1"
       radius="232"
       unit="px"
       method="auto"
       mode="F"
       chamfer_steps="1"
       flexible="false"
       use_knot_distance="true"
       apply_no_radius="true"
       apply_with_radius="true"
       only_selected="false"
       hide_knots="false" />
  </defs>
  <sodipodi:namedview
     id="namedview5"
     pagecolor="#ffffff"
     bordercolor="#000000"
     borderopacity="0.25"
     inkscape:showpageshadow="2"
     inkscape:pageopacity="0.0"
     inkscape:pagecheckerboard="0"
     inkscape:deskcolor="#d1d1d1"
     inkscape:zoom="0.6956163"
     inkscape:cx="290.38998"
     inkscape:cy="-29.47027"
     inkscape:window-width="1920"
     inkscape:window-height="1001"
     inkscape:window-x="1911"
     inkscape:window-y="-9"
     inkscape:window-maximized="1"
     inkscape:current-layer="svg5" />
  <path
     style="fill:#ffffff;stroke-width:91.309;paint-order:markers stroke fill"
     id="rect2"
     width="800"
     height="800"
     x="-18.458"
     y="-22.75"
     sodipodi:type="rect"
     d="m 181.542,-22.75 h 400 a 200,200 45 0 1 200,200 v 400 a 200,200 135 0 1 -200,200 h -400 a 200,200 45 0 1 -200,-200 v -400 a 200,200 135 0 1 200,-200 z"
     inkscape:path-effect="#path-effect3" />
  <path
     d="M 222.42862,577.03346 H 198.5228 c -0.84535,-40.35118 -3.17358,-78.28634 -6.98003,-113.83317 h -0.21248 l -36.3969,113.83317 H 136.73263 L 100.55288,463.20029 H 100.345 c -2.683915,34.12864 -4.374643,72.07305 -5.076802,113.83317 H 73.478124 c 1.404322,-50.78197 4.933604,-98.39025 10.57399,-142.82964 h 29.629326 l 34.4844,104.94989 h 0.21249 l 34.69691,-104.94989 h 28.34975 c 6.20858,52.05227 9.87645,99.66523 11.00361,142.82964 M 326.10357,471.65394 c -9.73324,52.81906 -22.5754,91.19768 -38.5126,115.15433 -12.41715,18.44096 -26.02152,27.67069 -40.8362,27.67069 -3.94965,0 -8.8232,-1.19186 -14.59755,-3.55703 v -12.7359 c 2.82251,0.40639 6.13468,0.63749 9.94113,0.63749 6.91997,0 12.48183,-1.90321 16.7225,-5.71891 5.0722,-4.64718 7.60829,-9.87182 7.60829,-15.65079 0,-3.96353 -1.97713,-12.06607 -5.92217,-24.3354 l -26.23401,-81.4691 h 23.48543 l 18.82901,60.93086 c 4.23144,13.83535 5.99608,23.49469 5.28929,28.99647 10.29683,-27.49976 17.48936,-57.48477 21.58684,-89.93195 h 22.64006 z"
     fill="#5d87a1"
     id="path2"
     style="stroke-width:4.61947" />
  <path
     d="M 644.31637,577.03346 H 576.41002 V 434.20382 h 22.8433 v 125.24789 h 45.06305 z m -85.68212,3.45076 -26.25711,-12.95767 c 2.32821,-1.91246 4.55481,-3.98199 6.55963,-6.37951 11.16069,-13.11005 16.72713,-32.49803 16.72713,-58.17771 0,-47.25258 -18.54257,-70.89047 -55.64162,-70.89047 -18.19148,0 -32.38248,5.9961 -42.53146,17.99288 -11.15142,13.11932 -16.71789,32.43796 -16.71789,57.97902 0,25.10685 4.9336,43.52475 14.80544,55.20741 9.03106,10.58322 22.6446,15.88177 40.84998,15.88177 6.79061,0 13.02229,-0.83151 18.69964,-2.50838 l 34.18416,19.9007 z m -85.05847,-32.03147 c -5.78354,-9.30364 -8.67531,-24.24304 -8.67531,-44.84133 0,-35.96255 10.925,-53.96467 32.79824,-53.96467 11.43318,0 19.81295,4.30536 25.17152,12.89759 5.77436,9.31749 8.68,24.1229 8.68,44.43468 0,36.25833 -10.9343,54.38976 -32.79367,54.38976 -11.43783,0.004 -19.81759,-4.28688 -25.18078,-12.91603 m -42.75782,-11.00822 c 0,12.11226 -4.44394,22.04874 -13.32257,29.83258 -8.88788,7.75148 -20.80614,11.63645 -35.74092,11.63645 -13.9693,0 -27.51363,-4.46239 -40.6237,-13.34103 l 6.13929,-12.26473 c 11.28077,5.6496 21.49444,8.45827 30.6641,8.45827 8.6061,0 15.33205,-1.90785 20.21022,-5.6912 4.87355,-3.79721 7.77922,-9.12347 7.77922,-15.85867 0,-8.48598 -5.91756,-15.73855 -16.77334,-21.81321 -10.01041,-5.49718 -30.03123,-16.99042 -30.03123,-16.99042 -10.85115,-7.90855 -16.28367,-16.3991 -16.28367,-30.38687 0,-11.57641 4.05128,-20.92162 12.15847,-28.031 8.11643,-7.13711 18.58878,-10.6941 31.42632,-10.6941 13.25791,0 25.31012,3.55239 36.1659,10.58323 l -5.50642,12.26934 c -9.28514,-3.94504 -18.4502,-5.91755 -27.49052,-5.91755 -7.32188,0 -12.97612,1.76001 -16.90728,5.29392 -3.96351,3.52004 -6.40723,8.02403 -6.40723,13.54893 0,8.4444 6.04229,15.78935 17.19371,21.98405 10.14438,5.50642 30.6641,17.19829 30.6641,17.19829 11.12832,7.8947 16.68557,16.30677 16.68557,30.18372"
     fill="#f8981d"
     id="path3"
     style="stroke-width:4.61947" />
  <path
     d="m 672.82807,386.92524 c -17.79435,-0.45229 -31.57156,1.33903 -43.1349,6.231 -3.33868,1.33307 -8.6472,1.33307 -9.11142,5.55254 1.80323,1.78539 2.01157,4.6658 3.57674,7.12964 2.66616,4.44561 7.31409,10.42665 11.55735,13.54514 4.65986,3.57076 9.33758,7.10582 14.24143,10.21835 8.64724,5.3502 18.44904,8.46274 26.87601,13.79508 4.90984,3.10062 9.78988,7.11178 14.70565,10.45047 2.41623,1.77943 3.96353,4.6658 7.09986,5.77869 v -0.67844 c -1.57112,-1.99963 -2.01747,-4.89196 -3.55882,-7.11774 l -6.67736,-6.43929 c -6.4512,-8.66507 -14.4676,-16.22916 -23.11484,-22.4423 -7.11768,-4.90386 -22.68627,-11.56929 -25.57266,-19.77017 l -0.45225,-0.45231 c 4.89196,-0.45825 10.6945,-2.23173 15.34243,-3.59456 7.56407,-1.99368 14.46165,-1.54139 22.22209,-3.53507 3.57075,-0.8927 7.11178,-2.01154 10.69446,-3.11251 v -2.00559 c -4.02304,-4.00522 -6.89156,-9.32567 -11.12298,-13.11068 -11.31934,-9.77796 -23.79321,-19.34168 -36.68371,-27.34617 -6.90348,-4.4575 -15.78279,-7.32603 -23.13262,-11.11699 -2.6483,-1.33904 -7.11178,-1.99964 -8.67105,-4.22542 -3.98734,-4.89194 -6.23097,-11.33125 -9.1233,-17.12184 -6.42738,-12.21799 -12.67028,-25.77502 -18.21689,-38.69525 -4.01115,-8.66508 -6.45119,-17.31825 -11.34316,-25.33463 -22.91248,-37.79067 -47.7948,-60.67931 -86.03778,-83.14541 -8.2187,-4.67772 -17.9966,-6.6714 -28.44111,-9.12334 l -16.68145,-0.88078 c -3.55887,-1.55924 -7.12368,-5.79059 -10.23026,-7.79023 -12.68813,-7.99853 -45.35474,-25.3346 -54.68635,-2.44598 -6.01081,14.46757 8.89123,28.69114 14.00932,36.02907 3.77908,5.09431 8.67698,10.89086 11.31934,16.67552 1.56518,3.77907 2.00559,7.79022 3.57077,11.78354 3.55887,9.7839 6.88564,20.66881 11.56335,29.79808 2.44003,4.6539 5.10026,9.54585 8.21874,13.75936 1.78538,2.46383 4.89194,3.55291 5.5704,7.57003 -3.10063,4.42776 -3.34463,11.11105 -5.12405,16.66955 -7.99853,25.12039 -4.87411,56.23965 6.4631,74.70054 3.54698,5.55851 12.00969,17.79434 23.32905,13.10473 10.02195,-3.99927 7.80215,-16.66956 10.68255,-27.7806 0.66058,-2.68403 0.226,-4.44561 1.55922,-6.20718 v 0.43445 c 3.10059,6.21909 6.23097,12.21205 9.1054,18.44897 6.89752,10.88492 18.90721,22.22807 28.91132,29.76834 5.32643,4.02308 9.54588,10.90277 16.21725,13.36064 v -0.66654 h -0.44023 c -1.35094,-1.99369 -3.3268,-2.88638 -5.10027,-4.43372 -4.01119,-4.00521 -8.45082,-8.89717 -11.56334,-13.33681 -9.31971,-12.45606 -17.56818,-26.24519 -24.88827,-40.47471 -3.58265,-6.90349 -6.67134,-14.44973 -9.5577,-21.34131 -1.34499,-2.66023 -1.34499,-6.67139 -3.57668,-8.01044 -3.3446,4.88601 -8.21872,9.11738 -10.65875,15.10437 -4.23136,9.57562 -4.67175,21.35322 -6.24289,33.60095 l -0.87484,0.42851 c -7.08217,-1.77947 -9.54601,-9.1055 -12.23598,-15.32459 -6.6595,-15.79472 -7.77834,-41.14719 -1.99964,-59.37002 1.54734,-4.65986 8.24253,-19.33572 5.57041,-23.77539 -1.33904,-4.25517 -5.79061,-6.67734 -8.23064,-10.02791 -2.86852,-4.21351 -6.01079,-9.54586 -8.01043,-14.22356 -5.33234,-12.44414 -8.01638,-26.23327 -13.75936,-38.67145 -2.68403,-5.79656 -7.34389,-11.79545 -11.117,-17.13376 -4.23733,-5.99889 -8.89717,-10.2243 -12.24775,-17.33609 -1.10694,-2.44598 -2.66023,-6.44524 -0.88079,-9.10547 0.43446,-1.78539 1.33903,-2.45193 3.11252,-2.89827 2.88042,-2.43408 11.11105,0.66058 13.99743,1.99963 8.24252,3.33272 15.13412,6.44525 22.0138,11.11105 3.11252,2.23173 6.4512,6.45714 10.44451,7.57004 h 4.67771 c 7.09988,1.54732 15.10436,0.42849 21.78765,2.44002 11.77754,3.78502 22.44812,9.33757 32.01781,15.33051 29.11964,18.46684 53.13307,44.70605 69.34438,76.04552 2.66023,5.1062 3.79093,9.78391 6.21909,15.11031 4.68367,10.90276 10.47423,22.01975 15.1222,32.69043 4.67178,10.44449 9.12334,21.10919 15.79472,29.78617 3.32675,4.66581 16.69335,7.11179 22.68631,9.55776 4.43369,1.99368 11.33718,3.76716 15.33644,6.21315 7.56412,4.65984 15.09843,10.01006 22.21021,15.13412 3.54104,2.66619 14.66991,8.22468 15.3305,12.67625 M 446.04846,193.72271 a 34.63648,34.63648 0 0 0 -9.09951,1.11884 v 0.44633 h 0.4285 c 1.79134,3.55292 4.90386,6.01675 7.12369,9.11738 1.79135,3.56483 3.34463,7.09989 5.10026,10.65874 l 0.42849,-0.44037 c 3.13634,-2.21983 4.69558,-5.7787 4.69558,-11.11699 -1.35095,-1.57115 -1.55924,-3.10657 -2.68403,-4.66582 -1.30927,-2.22578 -4.19565,-3.33271 -5.99293,-5.1181"
     fill="#5d87a1"
     id="path4"
     style="stroke-width:5.95127" />
  <path
     d="m 689.43019,577.01036 h 3.57548 v -17.49859 h -5.36322 l -4.37463,11.94135 -4.75344,-11.94135 h -5.16458 v 17.49859 h 3.37684 v -13.31333 h 0.18959 l 4.97981,13.31333 h 2.57305 l 4.96131,-13.31333 z m -28.80244,0 h 3.78335 v -14.53289 h 4.95207 v -2.97034 h -13.8954 v 2.97034 h 5.15073 z"
     fill="#f8981d"
     id="path5"
     style="stroke-width:4.61947" />
</svg>
