<?xml version="1.0" encoding="UTF-8" standalone="no"?>
<!-- Uploaded to: SVG Repo, www.svgrepo.com, Generator: SVG Repo Mixer Tools -->

<svg
   width="800"
   height="800"
   viewBox="0 0 800 800"
   fill="none"
   version="1.1"
   id="svg5"
   sodipodi:docname="python.svg"
   inkscape:version="1.3.2 (091e20e, 2023-11-25, custom)"
   xmlns:inkscape="http://www.inkscape.org/namespaces/inkscape"
   xmlns:sodipodi="http://sodipodi.sourceforge.net/DTD/sodipodi-0.dtd"
   xmlns="http://www.w3.org/2000/svg"
   xmlns:svg="http://www.w3.org/2000/svg">
  <sodipodi:namedview
     id="namedview5"
     pagecolor="#ffffff"
     bordercolor="#000000"
     borderopacity="0.25"
     inkscape:showpageshadow="2"
     inkscape:pageopacity="0.0"
     inkscape:pagecheckerboard="0"
     inkscape:deskcolor="#d1d1d1"
     inkscape:zoom="0.491875"
     inkscape:cx="42.693774"
     inkscape:cy="360.86404"
     inkscape:window-width="1920"
     inkscape:window-height="1001"
     inkscape:window-x="1911"
     inkscape:window-y="-9"
     inkscape:window-maximized="1"
     inkscape:current-layer="svg5" />
  <circle
     style="fill:#2371b1;stroke-width:8.55107;paint-order:markers stroke fill;fill-opacity:1"
     id="path3"
     cx="400"
     cy="400"
     r="400" />
  <path
     fill-rule="evenodd"
     clip-rule="evenodd"
     d="m 337.84201,142.05643 c -40.48091,0 -73.29624,31.77396 -73.29624,70.96921 v 49.13261 h 126.85871 v 13.64791 H 208.16415 c -40.48037,0 -73.29607,31.77415 -73.29607,70.96903 v 106.45426 c 0,39.19488 32.8157,70.96829 73.29607,70.96829 h 42.28617 v -60.0498 c 0,-39.19488 32.81588,-70.97014 73.2968,-70.97014 h 135.31473 c 34.25337,0 62.0194,-26.88533 62.0194,-60.0498 V 213.02564 c 0,-39.19525 -32.81441,-70.96921 -73.29533,-70.96921 z m -16.91387,87.34674 c 14.01199,0 25.37082,-10.99881 25.37082,-24.56621 0,-13.56758 -11.35883,-24.5664 -25.37082,-24.5664 -14.01383,0 -25.37266,10.99882 -25.37266,24.5664 0,13.5674 11.35883,24.56621 25.37266,24.56621 z"
     fill="url(#paint0_linear_87_8204)"
     id="path1"
     style="fill:url(#paint0_linear_87_8204);stroke:#ffffff;stroke-width:18.4247;stroke-opacity:1" />
  <path
     fill-rule="evenodd"
     clip-rule="evenodd"
     d="m 447.78224,657.94821 c 40.48092,0 73.29717,-31.77341 73.29717,-70.96829 V 537.84676 H 394.21978 v -13.64718 h 183.24107 c 40.48092,0 73.29533,-31.77525 73.29533,-70.97013 V 346.77519 c 0,-39.19488 -32.81441,-70.96866 -73.29533,-70.96866 h -42.28654 v 60.05017 c 0,39.19672 -32.81625,70.97013 -73.29533,70.97013 H 326.56241 c -34.25337,0 -62.01959,26.88534 -62.01959,60.0498 v 120.10329 c 0,39.19488 32.81643,70.96829 73.29552,70.96829 z m 16.91572,-87.34601 c -14.01383,0 -25.37266,10.99771 -25.37266,24.56566 0,13.56796 11.35883,24.56567 25.37266,24.56567 14.01199,0 25.37082,-10.99771 25.37082,-24.56567 0,-13.56795 -11.35883,-24.56566 -25.37082,-24.56566 z"
     fill="url(#paint1_linear_87_8204)"
     id="path2"
     style="fill:url(#paint1_linear_87_8204);stroke:#ffffff;stroke-width:18.4247;stroke-opacity:1" />
  <defs
     id="defs5">
    <inkscape:path-effect
       effect="fillet_chamfer"
       id="path-effect5"
       is_visible="true"
       lpeversion="1"
       nodesatellites_param="F,0,0,1,0,200,0,1 @ F,0,0,1,0,200,0,1 @ F,0,0,1,0,200,0,1 @ F,0,0,1,0,200,0,1"
       radius="200"
       unit="px"
       method="auto"
       mode="F"
       chamfer_steps="1"
       flexible="false"
       use_knot_distance="true"
       apply_no_radius="true"
       apply_with_radius="true"
       only_selected="false"
       hide_knots="false" />
    <linearGradient
       id="paint0_linear_87_8204"
       x1="12.4809"
       y1="2"
       x2="12.4809"
       y2="22.7407"
       gradientUnits="userSpaceOnUse"
       gradientTransform="matrix(18.424707,0,0,18.424707,98.018669,105.20702)">
      <stop
         stop-color="#327EBD"
         id="stop2" />
      <stop
         offset="1"
         stop-color="#1565A7"
         id="stop3" />
    </linearGradient>
    <linearGradient
       id="paint1_linear_87_8204"
       x1="19.518999"
       y1="9.2592802"
       x2="19.518999"
       y2="30"
       gradientUnits="userSpaceOnUse"
       gradientTransform="matrix(18.424707,0,0,18.424707,98.018669,105.20702)">
      <stop
         stop-color="#FFDA4B"
         id="stop4" />
      <stop
         offset="1"
         stop-color="#F9C600"
         id="stop5" />
    </linearGradient>
  </defs>
</svg>
