<?xml version="1.0" encoding="UTF-8" standalone="no"?>
<!-- Uploaded to: SVG Repo, www.svgrepo.com, Generator: SVG Repo Mixer Tools -->

<svg
   width="800"
   height="800"
   viewBox="0 0 800 800"
   id="Camada_1"
   version="1.1"
   xml:space="preserve"
   sodipodi:docname="ic_react.svg"
   inkscape:version="1.3.2 (091e20e, 2023-11-25, custom)"
   xmlns:inkscape="http://www.inkscape.org/namespaces/inkscape"
   xmlns:sodipodi="http://sodipodi.sourceforge.net/DTD/sodipodi-0.dtd"
   xmlns="http://www.w3.org/2000/svg"
   xmlns:svg="http://www.w3.org/2000/svg"><defs
   id="defs3"><inkscape:path-effect
     effect="fillet_chamfer"
     id="path-effect2"
     is_visible="true"
     lpeversion="1"
     nodesatellites_param="F,0,0,1,0,200,0,1 @ F,0,0,1,0,200,0,1 @ F,0,0,1,0,200,0,1 @ F,0,0,1,0,200,0,1"
     radius="200"
     unit="px"
     method="auto"
     mode="F"
     chamfer_steps="1"
     flexible="false"
     use_knot_distance="true"
     apply_no_radius="true"
     apply_with_radius="true"
     only_selected="false"
     hide_knots="false" /><inkscape:path-effect
     effect="fillet_chamfer"
     id="path-effect1"
     is_visible="true"
     lpeversion="1"
     nodesatellites_param="F,0,0,1,0,10.71429,0,1 @ F,0,0,1,0,200,0,1 @ F,0,0,1,0,200,0,1 @ F,0,0,1,0,200,0,1 @ F,0,0,1,0,200,0,1 @ F,0,0,1,0,200,0,1 @ F,0,0,1,0,200,0,1 @ F,0,0,1,0,0,0,1"
     radius="200"
     unit="px"
     method="auto"
     mode="F"
     chamfer_steps="1"
     flexible="false"
     use_knot_distance="true"
     apply_no_radius="true"
     apply_with_radius="true"
     only_selected="false"
     hide_knots="false" /></defs><sodipodi:namedview
   id="namedview3"
   pagecolor="#ffffff"
   bordercolor="#000000"
   borderopacity="0.25"
   inkscape:showpageshadow="2"
   inkscape:pageopacity="0.0"
   inkscape:pagecheckerboard="0"
   inkscape:deskcolor="#d1d1d1"
   inkscape:zoom="0.6956163"
   inkscape:cx="314.82874"
   inkscape:cy="364.42504"
   inkscape:window-width="1920"
   inkscape:window-height="1001"
   inkscape:window-x="1911"
   inkscape:window-y="-9"
   inkscape:window-maximized="1"
   inkscape:current-layer="Camada_1" />

<style
   type="text/css"
   id="style1">
	.st0{fill:#FFFFFF;}
</style>

<circle
   style="fill:#7cc5d9;fill-opacity:1;fill-rule:evenodd;stroke:none;stroke-width:0;paint-order:markers stroke fill"
   id="path4"
   cx="400"
   cy="400"
   r="400" />

<g
   id="g3"
   transform="scale(25)">

<path
   class="st0"
   d="m 27.5,16 c 0,-1.6 -1.9,-2.9 -4.7,-3.8 C 23.5,9.3 23.2,7 21.9,6.3 21.5,6.1 21.2,6 20.8,6 19.5,6 17.9,6.9 16.3,8.5 14.6,6.9 13,6 11.7,6 11.3,6 10.9,6.1 10.6,6.3 9.3,7 9,9.3 9.7,12.2 6.9,13.1 5,14.4 5,16 c 0,1.6 1.9,2.9 4.7,3.8 -0.7,2.9 -0.5,5.2 0.9,6 0.3,0.2 0.7,0.3 1.1,0.3 1.3,0 2.9,-0.9 4.5,-2.5 1.6,1.6 3.3,2.5 4.5,2.5 0.4,0 0.8,-0.1 1.1,-0.3 1.3,-0.8 1.6,-3.1 0.9,-6 2.9,-0.9 4.8,-2.3 4.8,-3.8 z M 20.8,7.1 c 0.2,0 0.4,0 0.5,0.1 0.6,0.4 0.9,1.7 0.7,3.4 -0.1,0.4 -0.1,0.9 -0.2,1.3 -0.9,-0.2 -1.9,-0.4 -2.9,-0.5 -0.6,-0.8 -1.2,-1.6 -1.8,-2.2 1.4,-1.4 2.8,-2.1 3.7,-2.1 z m -1.5,10.7 c -0.3,0.6 -0.7,1.1 -1,1.7 -0.7,0 -1.3,0.1 -2,0.1 -0.7,0 -1.4,0 -2,-0.1 -0.4,-0.5 -0.7,-1.1 -1,-1.7 -0.3,-0.6 -0.6,-1.2 -0.9,-1.8 0.3,-0.6 0.6,-1.2 0.9,-1.8 0.3,-0.6 0.7,-1.2 1.1,-1.7 0.6,0 1.3,-0.1 2,-0.1 0.7,0 1.3,0 2,0.1 0.4,0.5 0.7,1.1 1.1,1.7 0.3,0.6 0.6,1.2 0.9,1.8 -0.4,0.6 -0.8,1.2 -1.1,1.8 z m 1.5,-0.5 c 0.2,0.6 0.4,1.1 0.6,1.7 -0.6,0.1 -1.2,0.2 -1.8,0.3 0.2,-0.3 0.4,-0.6 0.6,-1 0.2,-0.3 0.4,-0.7 0.6,-1 z M 16.2,22 c -0.4,-0.4 -0.8,-0.9 -1.2,-1.4 0.4,0 0.8,0 1.2,0 0.4,0 0.8,0 1.2,0 -0.4,0.5 -0.8,1 -1.2,1.4 z M 12.8,19.3 C 12.2,19.2 11.6,19.1 11,19 c 0.2,-0.6 0.4,-1.1 0.6,-1.7 0.2,0.3 0.4,0.7 0.6,1 0.2,0.4 0.4,0.7 0.6,1 z m -1.1,-4.6 c -0.2,-0.6 -0.4,-1.2 -0.6,-1.7 0.6,-0.1 1.2,-0.2 1.8,-0.3 -0.2,0.3 -0.4,0.7 -0.6,1 -0.3,0.3 -0.5,0.7 -0.6,1 z M 16.2,10 c 0.4,0.4 0.8,0.9 1.2,1.4 -0.4,0 -0.8,0 -1.2,0 -0.4,0 -0.8,0 -1.2,0 0.4,-0.5 0.8,-1 1.2,-1.4 z m 4,3.7 c -0.2,-0.4 -0.4,-0.7 -0.6,-1 0.6,0.1 1.2,0.2 1.8,0.3 -0.2,0.6 -0.4,1.2 -0.6,1.7 -0.2,-0.3 -0.4,-0.7 -0.6,-1 z m -9.7,-3.1 c -0.2,-1.7 0,-3 0.7,-3.4 0.1,-0.1 0.3,-0.1 0.5,-0.1 0.9,0 2.3,0.7 3.8,2.2 -0.6,0.7 -1.2,1.4 -1.8,2.2 -1,0.1 -2,0.3 -2.9,0.5 -0.2,-0.5 -0.3,-1 -0.3,-1.4 z M 8.7,18.2 C 7.1,17.5 6.1,16.7 6.1,15.9 c 0,-0.7 1,-1.6 2.6,-2.3 0.4,-0.2 0.8,-0.3 1.3,-0.4 0.3,0.9 0.6,1.8 1,2.7 -0.4,0.9 -0.8,1.8 -1,2.7 -0.5,0 -0.9,-0.2 -1.3,-0.4 z m 2.5,6.6 c -0.6,-0.4 -0.9,-1.7 -0.7,-3.4 0.1,-0.4 0.1,-0.9 0.3,-1.4 0.9,0.2 1.8,0.4 2.8,0.5 0.6,0.8 1.2,1.6 1.9,2.3 C 14,24.2 12.6,25 11.7,25 11.5,24.9 11.3,24.9 11.2,24.8 Z M 22,21.4 c 0.2,1.7 0,3 -0.7,3.4 -0.1,0.1 -0.3,0.1 -0.5,0.1 -0.9,0 -2.3,-0.7 -3.8,-2.2 0.6,-0.7 1.3,-1.4 1.9,-2.3 1,-0.1 2,-0.2 2.8,-0.5 0.1,0.6 0.2,1.1 0.3,1.5 z m 1.8,-3.2 c -0.4,0.2 -0.8,0.3 -1.3,0.5 -0.3,-0.9 -0.6,-1.8 -1,-2.7 0.4,-0.9 0.8,-1.9 1,-2.7 0.5,0.1 0.9,0.3 1.3,0.4 1.6,0.7 2.6,1.5 2.6,2.3 0,0.7 -1,1.6 -2.6,2.2 z"
   id="path2" />

<path
   class="st0"
   d="m 16.3,18.1 c 1.2,0 2.1,-0.9 2.1,-2.1 0,-1.2 -0.9,-2.1 -2.1,-2.1 -1.2,0 -2.1,0.9 -2.1,2.1 0,1.2 0.9,2.1 2.1,2.1 z"
   id="path3" />

</g>

</svg>
